<svg width="304" height="297" viewBox="0 0 304 297" fill="none" xmlns="http://www.w3.org/2000/svg">
<path d="M403.5 90.7726C403.5 149.995 354.622 201.298 289.237 237.831C223.882 274.348 142.215 296 77 296C44.403 296 24.8175 288.668 13.6789 275.954C2.53405 263.234 -0.268133 244.999 1.01826 222.911C2.09025 204.503 5.99317 183.515 10.1887 160.954C11.0267 156.447 11.8765 151.877 12.7177 147.253C17.7663 119.499 22.4998 89.8026 22.4998 60C22.4998 0.47097 26.2325 -45.5622 46.1902 -76.7256C66.1043 -107.821 102.266 -124.227 167.5 -124.227C297.884 -124.227 403.5 -27.9259 403.5 90.7726Z" stroke="#EB5757"/>
</svg>
