<svg width="1440" height="662" viewBox="0 0 1440 662" fill="none" xmlns="http://www.w3.org/2000/svg">
<path d="M1528.27 146.5C1528.27 205.723 1479.39 257.025 1414.01 293.559C1348.65 330.075 1266.99 351.727 1201.77 351.727C1169.17 351.727 1149.59 344.395 1138.45 331.682C1127.3 318.961 1124.5 300.727 1125.79 278.638C1126.86 260.231 1130.76 239.243 1134.96 216.681C1135.8 212.174 1136.65 207.605 1137.49 202.98C1142.54 175.226 1147.27 145.53 1147.27 115.727C1147.27 56.1984 1151 10.1652 1170.96 -20.9981C1190.87 -52.0936 1227.04 -68.5 1292.27 -68.5C1422.65 -68.5 1528.27 27.8015 1528.27 146.5Z" stroke="#EB5757"/>
<path d="M1600.27 45.5C1600.27 104.723 1551.39 156.025 1486.01 192.559C1420.65 229.075 1338.99 250.727 1273.77 250.727C1241.17 250.727 1221.59 243.395 1210.45 230.682C1199.3 217.961 1196.5 199.727 1197.79 177.638C1198.86 159.231 1202.76 138.243 1206.96 115.681C1207.8 111.174 1208.65 106.605 1209.49 101.98C1214.54 74.2263 1219.27 44.53 1219.27 14.7274C1219.27 -44.8016 1223 -90.8348 1242.96 -121.998C1262.87 -153.094 1299.04 -169.5 1364.27 -169.5C1494.65 -169.5 1600.27 -73.1985 1600.27 45.5Z" stroke="#EB5757"/>
<path d="M1548.5 75.6525C1548.5 186.948 1493.87 283.16 1421.03 351.561C1348.18 419.971 1257.18 460.5 1184.56 460.5C1166.43 460.5 1151.91 457.073 1140.37 450.672C1128.84 444.273 1120.26 434.883 1114.01 422.902C1101.51 398.912 1098.39 364.553 1099.82 323.123C1101.02 288.6 1105.37 249.239 1110.05 206.98C1110.98 198.541 1111.93 189.987 1112.87 181.332C1118.49 129.35 1123.76 73.774 1123.76 18.0125C1123.76 -93.4711 1127.92 -179.879 1150.22 -238.415C1161.37 -267.666 1177.03 -289.922 1198.95 -304.872C1220.87 -319.823 1249.1 -327.5 1285.42 -327.5C1357.98 -327.5 1423.74 -282.458 1471.38 -209.5C1519.02 -136.545 1548.5 -35.7302 1548.5 75.6525Z" stroke="#EB5757" stroke-opacity="0.39"/>
<path d="M-118.565 27.4454C-118.565 27.4454 218.45 -45.5568 287.951 27.4454C357.452 100.448 337.781 210.82 287.951 312.501C238.12 414.183 124.264 552.612 -81.8474 627.975C-123.187 643.091 -192 661 -192 661" stroke="#EB5757"/>
<path d="M-1 -68.3333C-1 -68.3333 127.5 -110.333 154 -68.3333C180.5 -26.3333 173 37.1666 154 95.6666C135 154.167 91.5882 233.808 13 277.167C-2.76246 285.863 -29 296.167 -29 296.167" stroke="#EB5757"/>
</svg>
